<?xml version="1.0" standalone="no"?>
<!DOCTYPE svg PUBLIC "-//W3C//DTD SVG 20010904//EN"
 "http://www.w3.org/TR/2001/REC-SVG-20010904/DTD/svg10.dtd">
<svg version="1.0" xmlns="http://www.w3.org/2000/svg"
 width="908.000000pt" height="908.000000pt" viewBox="0 0 908.000000 908.000000"
 preserveAspectRatio="xMidYMid meet">
<metadata>
Created by potrace 1.11, written by Peter Selinger 2001-2013
</metadata>
<g transform="translate(0.000000,908.000000) scale(0.100000,-0.100000)"
fill="#000000" stroke="none">
<path d="M7623 8844 c-46 -30 -85 -54 -88 -54 -3 0 -29 -12 -58 -27 -28 -15
-54 -28 -57 -28 -3 -1 -21 -9 -40 -17 -48 -22 -145 -59 -161 -62 -8 -1 -19 -5
-25 -8 -6 -4 -23 -9 -38 -12 -15 -3 -42 -10 -59 -15 -31 -10 -70 -19 -112 -26
-11 -2 -20 -4 -20 -5 0 -1 -11 -3 -25 -5 -14 -2 -42 -6 -62 -10 -107 -18 -203
-23 -398 -20 -118 1 -226 5 -240 8 -14 3 -52 9 -85 12 -33 4 -70 9 -82 10 -12
2 -36 7 -55 11 -18 5 -37 9 -43 9 -18 2 -129 27 -145 33 -22 8 -32 10 -64 17
-16 3 -36 10 -45 14 -9 5 -20 10 -26 10 -22 4 -61 14 -70 20 -11 6 -18 7 -85
16 -103 13 -141 15 -260 16 -119 2 -247 -6 -300 -16 -14 -3 -36 -7 -50 -10
-94 -18 -121 -26 -200 -58 -111 -45 -191 -102 -258 -181 -20 -25 -61 -107 -74
-147 -10 -37 -9 -40 25 -78 112 -124 122 -325 23 -432 -32 -34 -93 -72 -105
-65 -5 4 -11 2 -13 -3 -1 -5 -19 -10 -38 -12 -19 -2 -39 -5 -44 -7 -16 -9
-148 -15 -286 -15 -128 1 -200 4 -435 19 -138 9 -368 10 -440 1 -73 -8 -160
-23 -160 -27 0 -1 -11 -3 -25 -6 -40 -7 -191 -72 -201 -87 -3 -5 -8 -7 -10 -6
-9 6 -154 -102 -194 -145 -5 -6 -28 -26 -50 -45 -95 -80 -256 -245 -305 -311
-14 -19 -32 -41 -40 -50 -21 -21 -131 -213 -129 -223 1 -1 -4 -21 -10 -45 -31
-112 -32 -172 -7 -298 5 -29 39 -56 126 -102 53 -27 126 -70 164 -96 37 -25
71 -46 76 -46 4 0 10 -3 12 -7 2 -5 24 -25 49 -45 140 -113 235 -246 264 -372
23 -98 20 -176 -10 -279 -9 -31 -17 -60 -17 -64 -2 -20 -69 -156 -100 -201
-63 -94 -171 -209 -423 -452 -123 -118 -265 -299 -265 -337 0 -24 41 -116 75
-167 71 -107 205 -221 342 -290 59 -29 182 -72 230 -79 17 -3 37 -8 42 -12 6
-3 11 -2 11 4 0 7 9 7 23 3 22 -8 62 -8 222 1 106 7 151 15 188 36 42 23 52
63 27 110 -16 32 -29 50 -71 99 -14 17 -90 162 -85 162 2 0 -2 21 -10 46 -21
69 -13 242 15 322 28 81 76 155 137 213 49 45 156 105 204 113 25 4 75 21 310
106 63 23 120 43 125 44 6 2 19 7 30 11 11 4 77 29 146 56 124 47 320 129 369
153 156 78 300 159 300 169 0 4 5 7 11 7 6 0 25 11 43 25 18 14 38 25 44 25 6
0 12 3 14 8 2 4 36 34 77 66 82 65 211 191 237 231 15 23 15 27 1 38 -8 7 -38
30 -66 52 -28 21 -51 43 -51 47 0 4 -6 8 -12 8 -7 0 -30 15 -50 33 -20 17 -51
43 -69 57 -18 14 -37 30 -43 35 -6 6 -22 19 -36 28 -42 29 -177 167 -207 211
-15 22 -31 43 -34 46 -10 8 -45 82 -57 120 -39 126 -31 248 24 350 34 62 122
170 140 170 4 0 17 9 28 19 25 24 145 84 201 100 22 7 47 15 55 18 8 3 20 7
25 8 6 2 28 7 50 13 44 12 84 20 130 28 17 2 41 7 55 10 28 7 34 8 140 24 109
17 111 17 155 26 52 10 55 11 58 14 1 1 13 3 27 5 43 5 114 26 126 35 6 6 13
8 16 5 2 -3 19 -1 36 5 18 5 54 11 80 15 49 6 52 7 117 20 22 5 51 9 65 11 14
1 25 3 25 4 0 1 9 3 20 4 11 1 36 6 55 9 19 4 38 7 42 8 4 0 22 5 40 10 18 5
47 12 63 15 17 2 73 16 125 30 52 14 100 27 105 28 6 1 16 5 23 9 6 5 12 6 12
3 0 -7 246 78 350 121 107 44 261 123 340 174 33 21 65 39 70 39 4 0 10 3 12
8 2 4 21 21 44 37 187 136 362 335 449 510 9 17 19 37 24 45 17 27 50 106 71
171 12 35 27 74 35 89 17 33 29 90 18 89 -4 0 -45 -25 -90 -55z"/>
<path d="M8785 7206 c-42 -15 -135 -69 -135 -78 0 -5 -7 -8 -15 -8 -8 0 -15
-4 -15 -9 0 -5 -13 -17 -29 -28 -26 -16 -74 -54 -136 -108 -13 -11 -40 -33
-60 -50 -21 -16 -52 -43 -70 -60 -18 -16 -54 -48 -80 -70 -26 -22 -61 -53 -79
-70 -18 -16 -73 -66 -121 -110 -49 -44 -103 -93 -121 -110 -18 -16 -78 -73
-135 -125 -56 -52 -118 -111 -139 -130 -336 -318 -308 -291 -715 -685 -131
-126 -313 -304 -405 -395 -92 -91 -199 -195 -238 -232 -39 -38 -69 -68 -67
-68 2 0 -28 -30 -67 -67 -141 -137 -538 -536 -538 -542 0 -3 -35 -5 -77 -4
-43 0 -103 -3 -133 -8 -30 -6 -67 -12 -82 -14 -122 -18 -406 -128 -548 -213
-25 -14 -48 -25 -52 -24 -5 1 -8 -3 -8 -8 0 -6 -4 -10 -9 -10 -6 0 -54 -30
-108 -67 -71 -50 -154 -124 -303 -274 -113 -113 -210 -212 -217 -220 -10 -12
91 -14 747 -14 l758 0 54 50 c30 28 83 86 119 130 35 44 67 82 72 83 4 2 5 7
2 12 -3 5 0 15 7 22 36 39 74 140 83 223 10 79 -22 167 -80 227 l-44 46 57 50
c66 58 81 71 152 132 30 25 63 54 75 65 13 11 44 38 71 60 26 22 58 49 70 60
28 26 49 43 163 140 52 44 102 87 111 95 9 8 40 35 70 60 29 25 58 50 64 55 6
6 38 32 71 60 33 27 65 55 70 61 6 6 37 33 70 60 33 27 65 54 71 59 41 38 141
123 158 135 12 8 32 26 46 40 14 14 35 32 46 40 20 14 119 98 154 130 9 8 36
31 60 51 25 20 56 47 70 59 14 12 45 38 69 58 25 21 65 55 90 76 25 22 54 47
65 55 10 9 39 34 65 55 25 22 54 47 65 55 40 34 184 156 235 200 30 25 63 52
75 60 11 8 23 18 26 21 3 4 34 31 70 61 36 29 70 58 76 64 6 5 39 33 73 60 33
28 61 53 61 58 0 4 6 7 14 7 8 0 16 3 18 8 2 4 28 27 58 52 30 25 57 47 60 51
3 3 32 28 65 54 33 27 62 51 65 54 3 3 38 33 79 66 41 33 85 69 97 80 12 12
54 45 92 75 39 30 78 69 88 85 51 84 11 192 -85 233 -45 18 -146 23 -186 8z"/>
<path d="M4650 5043 c0 -4 -141 -9 -313 -9 -171 -1 -406 -4 -522 -6 -205 -5
-212 -6 -300 -37 -49 -18 -130 -45 -180 -61 -282 -88 -356 -159 -377 -359 0
-3 0 -8 1 -11 1 -3 4 -24 6 -47 2 -24 13 -72 25 -107 l21 -64 42 4 c202 21
1989 39 2451 25 l110 -3 68 70 c37 39 68 69 68 65 0 -3 10 7 23 23 12 16 120
127 240 248 119 120 215 221 213 224 -7 7 -67 11 -250 17 -94 3 -243 8 -331
11 -88 3 -342 6 -565 8 -223 1 -411 6 -418 10 -7 4 -12 4 -12 -1z"/>
<path d="M6818 4957 c-21 -10 -91 -65 -142 -112 -13 -12 -172 -144 -235 -195
-47 -39 -56 -46 -127 -106 -27 -23 -78 -66 -114 -95 -36 -29 -77 -65 -93 -79
l-27 -25 47 -2 c111 -2 474 -27 573 -39 25 -3 74 -7 110 -10 64 -4 117 -9 195
-19 22 -2 65 -7 95 -10 60 -6 200 -24 240 -30 14 -3 48 -7 75 -10 28 -3 61 -8
75 -10 68 -11 100 -16 150 -25 87 -15 113 -19 145 -26 17 -3 39 -7 50 -9 11
-2 54 -10 95 -20 136 -30 171 -39 285 -70 33 -9 67 -18 75 -20 36 -8 231 -75
271 -93 24 -11 68 -30 97 -43 28 -12 52 -26 52 -29 0 -4 -19 -20 -42 -36 -24
-16 -45 -31 -48 -34 -15 -17 -242 -136 -345 -181 -150 -66 -189 -81 -325 -125
-80 -25 -154 -50 -165 -55 -20 -8 -242 -68 -280 -75 -45 -9 -62 -12 -100 -23
-40 -11 -214 -47 -270 -57 -16 -2 -37 -7 -45 -9 -8 -2 -37 -7 -65 -11 -49 -6
-61 -8 -107 -19 -13 -3 -43 -8 -68 -10 -25 -2 -56 -7 -70 -10 -14 -4 -38 -8
-55 -9 -16 -2 -48 -6 -70 -9 -43 -7 -124 -17 -165 -22 -14 -1 -47 -6 -75 -9
-27 -4 -71 -9 -96 -11 -26 -2 -64 -6 -85 -9 -22 -3 -73 -8 -114 -12 -41 -3
-91 -7 -110 -9 -34 -4 -161 -14 -250 -20 -25 -2 -97 -6 -160 -10 -63 -3 -144
-8 -180 -10 -174 -12 -631 -19 -1160 -19 -542 0 -689 3 -977 21 -59 3 -132 7
-160 7 -29 1 -53 3 -53 6 0 3 -24 6 -53 7 -74 2 -143 8 -422 38 -16 2 -55 6
-85 8 -30 3 -66 8 -80 11 -14 3 -47 8 -75 11 -67 8 -102 13 -182 26 -38 6 -79
13 -93 14 -14 2 -36 6 -50 10 -14 3 -41 7 -60 10 -19 2 -79 13 -132 25 -53 11
-111 23 -128 25 -17 2 -37 8 -44 14 -7 6 -15 8 -19 5 -6 -6 -123 23 -307 76
-41 12 -82 24 -90 25 -31 7 -248 85 -335 120 -99 40 -300 139 -364 179 -22 14
-45 26 -50 26 -5 0 -11 3 -13 8 -2 4 -23 20 -48 37 -54 36 -130 97 -130 105 0
3 15 11 33 19 17 8 50 22 72 31 35 15 111 43 125 45 3 1 41 13 85 27 82 27
213 62 370 98 50 11 101 23 115 26 14 4 39 8 55 10 17 2 64 10 105 18 122 23
252 43 320 51 19 2 35 4 35 5 0 3 82 12 103 11 27 -1 27 5 3 44 -47 77 -65
193 -43 275 21 79 94 180 187 258 123 104 147 129 113 117 -7 -2 -42 -6 -78
-9 -36 -3 -78 -8 -95 -10 -30 -3 -141 -15 -205 -22 -19 -2 -51 -6 -70 -9 -35
-5 -113 -15 -160 -20 -14 -1 -38 -5 -55 -8 -16 -4 -48 -9 -70 -12 -23 -3 -52
-8 -65 -10 -14 -3 -47 -8 -75 -11 -27 -4 -58 -10 -67 -16 -10 -5 -18 -7 -18
-5 0 3 -33 -2 -72 -10 -40 -8 -84 -16 -98 -19 -96 -19 -296 -73 -405 -109
-239 -80 -383 -161 -438 -248 -17 -26 -17 -76 -1 -162 2 -11 6 -33 9 -50 3
-16 7 -43 10 -60 3 -16 10 -52 15 -80 4 -27 13 -70 20 -95 6 -25 13 -58 16
-75 3 -16 17 -70 30 -120 14 -49 27 -101 30 -115 3 -14 8 -34 11 -45 4 -11 8
-24 9 -30 4 -20 67 -220 75 -240 4 -11 17 -49 29 -85 12 -36 25 -74 30 -85 12
-29 35 -89 36 -95 2 -11 88 -217 122 -290 90 -198 178 -367 284 -541 40 -67
77 -130 83 -140 5 -11 13 -19 18 -19 4 0 5 -5 2 -10 -3 -6 -2 -10 2 -10 5 0
22 -22 38 -50 17 -27 33 -50 38 -50 4 0 7 -7 7 -15 0 -8 4 -15 8 -15 5 0 17
-16 28 -35 10 -19 22 -35 26 -35 4 0 14 -12 22 -27 8 -16 25 -40 38 -54 13
-15 37 -44 53 -65 136 -174 414 -461 539 -557 15 -12 38 -31 50 -42 11 -11 39
-34 61 -50 22 -17 42 -32 45 -35 3 -3 23 -18 45 -35 22 -16 42 -31 45 -34 5
-6 172 -116 250 -166 103 -66 334 -188 455 -240 22 -9 58 -25 80 -36 41 -19
49 -22 225 -83 58 -21 112 -40 120 -43 8 -3 20 -7 25 -9 6 -1 51 -14 100 -29
50 -14 104 -29 120 -32 17 -3 38 -9 48 -14 9 -5 17 -8 17 -6 0 3 26 -2 58 -10
31 -7 68 -16 82 -18 14 -2 36 -7 50 -10 14 -3 36 -8 50 -10 14 -2 54 -9 90
-15 144 -25 208 -33 360 -45 19 -2 35 -4 35 -5 0 -7 255 -15 485 -15 286 0
415 6 625 30 28 3 68 7 90 10 22 2 54 7 70 9 17 3 57 10 90 15 33 6 71 12 85
15 14 3 41 7 60 10 19 4 64 13 100 21 36 9 74 17 85 20 31 7 234 62 290 79 85
25 296 104 425 159 14 5 28 10 33 9 4 -1 7 3 7 8 0 6 5 10 10 10 44 0 527 270
594 332 11 10 28 20 38 24 10 3 18 10 18 15 0 5 4 9 10 9 5 0 18 6 27 14 10 8
64 51 121 96 56 44 111 88 121 98 10 9 33 30 52 45 157 131 420 418 575 627
112 151 264 381 264 400 0 6 3 10 8 10 4 0 18 21 32 47 13 27 34 65 47 85 28
45 161 309 198 393 99 221 187 450 245 640 17 55 38 123 47 150 8 28 17 57 18
65 2 8 8 30 14 48 5 18 10 35 10 37 1 3 1 6 2 8 0 1 2 9 4 17 1 8 13 56 25
105 12 50 24 101 27 115 3 14 6 30 7 35 18 81 25 116 32 165 2 19 7 46 9 60
39 202 24 244 -120 334 -112 71 -360 162 -545 200 -14 3 -56 13 -95 21 -38 9
-81 18 -95 20 -27 4 -70 12 -110 20 -14 3 -38 8 -55 11 -16 3 -41 7 -55 10
-14 2 -43 7 -65 9 -22 3 -69 10 -105 16 -73 12 -103 16 -175 23 -27 3 -63 7
-80 10 -31 5 -145 17 -205 22 -19 2 -57 5 -85 8 -27 3 -75 8 -105 10 -30 3
-86 8 -125 11 -38 4 -93 8 -121 9 -28 1 -55 5 -60 8 -5 3 -21 1 -36 -5z"/>
<path d="M3925 4254 c-120 -22 -169 -60 -146 -111 17 -37 13 -88 -9 -115 l-19
-25 157 4 c159 4 401 11 414 12 8 1 -44 94 -73 132 -12 15 -22 20 -26 14 -14
-19 -59 -33 -86 -28 -28 6 -67 70 -67 111 0 20 -5 22 -43 20 -23 -2 -69 -8
-102 -14z"/>
<path d="M6266 4189 c-54 -15 -98 -78 -111 -163 -5 -30 -3 -36 12 -37 18 -1
307 2 433 5 l65 1 -1 38 c-2 44 -3 46 -40 53 -43 9 -59 12 -59 14 0 1 -9 3
-20 5 -19 4 -65 22 -135 53 -19 9 -37 17 -40 17 -3 1 -12 4 -20 7 -31 12 -56
14 -84 7z"/>
<path d="M1557 4004 c-3 -4 -86 -8 -184 -10 -98 -1 -200 -5 -227 -9 -61 -7
-136 -39 -136 -58 0 -46 104 -120 230 -165 l85 -29 80 38 c44 21 86 38 93 38
6 1 12 5 12 10 0 13 85 34 109 26 11 -3 31 -8 43 -11 55 -10 69 -13 76 -18 4
-2 14 -1 22 5 10 6 11 9 3 9 -7 0 -13 8 -13 18 0 10 -4 22 -9 28 -4 5 -16 33
-27 62 -11 31 -24 52 -33 53 -9 0 -36 2 -61 2 -25 1 -48 5 -51 10 -3 4 -8 4
-12 1z"/>
<path d="M7289 3796 c-17 -17 -231 -49 -346 -51 -212 -5 -235 -21 -239 -167
-1 -50 2 -91 8 -94 15 -9 118 -10 118 -1 0 4 7 4 17 -1 9 -6 29 -6 45 -2 16 5
30 5 34 -1 3 -5 10 -6 16 -3 6 4 99 9 206 11 108 2 197 5 200 7 8 8 13 66 5
65 -17 -4 -103 24 -114 37 -14 17 5 94 23 94 6 0 8 3 5 6 -3 4 5 26 18 49 14
23 25 45 25 48 0 8 -14 9 -21 3z"/>
<path d="M2500 3739 c5 -57 -1 -88 -23 -111 -13 -14 -29 -27 -36 -29 -17 -6
-22 -64 -10 -110 l9 -36 197 -1 c109 -1 206 1 216 4 16 5 18 14 13 76 -6 79
-35 149 -69 166 -12 6 -42 13 -67 17 -42 5 -60 8 -120 20 -14 2 -40 7 -59 10
-19 3 -38 8 -44 12 -5 3 -8 -5 -7 -18z"/>
</g>
</svg>
